<svg width="8" height="8" viewBox="0 0 8 8" fill="none" xmlns="http://www.w3.org/2000/svg">
<g clip-path="url(#clip0_5_395)">
<path d="M4 5.5C3.60218 5.5 3.22064 5.34196 2.93934 5.06066C2.65804 4.77936 2.5 4.39782 2.5 4C2.5 3.60218 2.65804 3.22064 2.93934 2.93934C3.22064 2.65804 3.60218 2.5 4 2.5C4.39782 2.5 4.77936 2.65804 5.06066 2.93934C5.34196 3.22064 5.5 3.60218 5.5 4C5.5 4.39782 5.34196 4.77936 5.06066 5.06066C4.77936 5.34196 4.39782 5.5 4 5.5ZM4 6C4.53043 6 5.03914 5.78929 5.41421 5.41421C5.78929 5.03914 6 4.53043 6 4C6 3.46957 5.78929 2.96086 5.41421 2.58579C5.03914 2.21071 4.53043 2 4 2C3.46957 2 2.96086 2.21071 2.58579 2.58579C2.21071 2.96086 2 3.46957 2 4C2 4.53043 2.21071 5.03914 2.58579 5.41421C2.96086 5.78929 3.46957 6 4 6ZM4 0C4.0663 0 4.12989 0.0263392 4.17678 0.0732233C4.22366 0.120107 4.25 0.183696 4.25 0.25V1.25C4.25 1.3163 4.22366 1.37989 4.17678 1.42678C4.12989 1.47366 4.0663 1.5 4 1.5C3.9337 1.5 3.87011 1.47366 3.82322 1.42678C3.77634 1.37989 3.75 1.3163 3.75 1.25V0.25C3.75 0.183696 3.77634 0.120107 3.82322 0.0732233C3.87011 0.0263392 3.9337 0 4 0V0ZM4 6.5C4.0663 6.5 4.12989 6.52634 4.17678 6.57322C4.22366 6.62011 4.25 6.6837 4.25 6.75V7.75C4.25 7.8163 4.22366 7.87989 4.17678 7.92678C4.12989 7.97366 4.0663 8 4 8C3.9337 8 3.87011 7.97366 3.82322 7.92678C3.77634 7.87989 3.75 7.8163 3.75 7.75V6.75C3.75 6.6837 3.77634 6.62011 3.82322 6.57322C3.87011 6.52634 3.9337 6.5 4 6.5ZM8 4C8 4.0663 7.97366 4.12989 7.92678 4.17678C7.87989 4.22366 7.8163 4.25 7.75 4.25H6.75C6.6837 4.25 6.62011 4.22366 6.57322 4.17678C6.52634 4.12989 6.5 4.0663 6.5 4C6.5 3.9337 6.52634 3.87011 6.57322 3.82322C6.62011 3.77634 6.6837 3.75 6.75 3.75H7.75C7.8163 3.75 7.87989 3.77634 7.92678 3.82322C7.97366 3.87011 8 3.9337 8 4ZM1.5 4C1.5 4.0663 1.47366 4.12989 1.42678 4.17678C1.37989 4.22366 1.3163 4.25 1.25 4.25H0.25C0.183696 4.25 0.120107 4.22366 0.0732233 4.17678C0.0263392 4.12989 0 4.0663 0 4C0 3.9337 0.0263392 3.87011 0.0732233 3.82322C0.120107 3.77634 0.183696 3.75 0.25 3.75H1.25C1.3163 3.75 1.37989 3.77634 1.42678 3.82322C1.47366 3.87011 1.5 3.9337 1.5 4ZM6.8285 1.1715C6.87537 1.21838 6.9017 1.28196 6.9017 1.34825C6.9017 1.41454 6.87537 1.47812 6.8285 1.525L6.1215 2.2325C6.09826 2.25571 6.07067 2.27412 6.04031 2.28667C6.00995 2.29922 5.97742 2.30566 5.94457 2.30564C5.87823 2.30559 5.81463 2.27919 5.76775 2.23225C5.74454 2.20901 5.72613 2.18142 5.71358 2.15106C5.70103 2.1207 5.69459 2.08817 5.69461 2.05532C5.69466 1.98898 5.72106 1.92538 5.768 1.8785L6.475 1.1715C6.52188 1.12463 6.58546 1.0983 6.65175 1.0983C6.71804 1.0983 6.78162 1.12463 6.8285 1.1715ZM2.232 5.768C2.27887 5.81488 2.3052 5.87846 2.3052 5.94475C2.3052 6.01104 2.27887 6.07462 2.232 6.1215L1.525 6.8285C1.47785 6.87404 1.4147 6.89924 1.34915 6.89867C1.2836 6.8981 1.2209 6.87181 1.17455 6.82545C1.12819 6.7791 1.1019 6.7164 1.10133 6.65085C1.10076 6.5853 1.12596 6.52215 1.1715 6.475L1.8785 5.768C1.92538 5.72113 1.98896 5.6948 2.05525 5.6948C2.12154 5.6948 2.18512 5.72113 2.232 5.768ZM6.8285 6.8285C6.78162 6.87537 6.71804 6.9017 6.65175 6.9017C6.58546 6.9017 6.52188 6.87537 6.475 6.8285L5.768 6.1215C5.72246 6.07435 5.69726 6.0112 5.69783 5.94565C5.6984 5.8801 5.72469 5.8174 5.77105 5.77105C5.8174 5.72469 5.8801 5.6984 5.94565 5.69783C6.0112 5.69726 6.07435 5.72246 6.1215 5.768L6.8285 6.475C6.87537 6.52188 6.9017 6.58546 6.9017 6.65175C6.9017 6.71804 6.87537 6.78162 6.8285 6.8285ZM2.232 2.2325C2.18512 2.27937 2.12154 2.3057 2.05525 2.3057C1.98896 2.3057 1.92538 2.27937 1.8785 2.2325L1.1715 1.525C1.14762 1.50194 1.12858 1.47435 1.11547 1.44385C1.10237 1.41335 1.09548 1.38055 1.09519 1.34735C1.0949 1.31416 1.10122 1.28124 1.11379 1.25051C1.12636 1.21979 1.14493 1.19187 1.1684 1.1684C1.19187 1.14493 1.21979 1.12636 1.25051 1.11379C1.28124 1.10122 1.31416 1.0949 1.34735 1.09519C1.38055 1.09548 1.41335 1.10237 1.44385 1.11547C1.47435 1.12858 1.50194 1.14762 1.525 1.1715L2.232 1.8785C2.25528 1.90172 2.27375 1.92931 2.28636 1.95968C2.29896 1.99006 2.30545 2.02262 2.30545 2.0555C2.30545 2.08838 2.29896 2.12094 2.28636 2.15132C2.27375 2.18169 2.25528 2.20928 2.232 2.2325Z" fill="white"/>
</g>
<defs>
<clipPath id="clip0_5_395">
<rect width="8" height="8" fill="white"/>
</clipPath>
</defs>
</svg>
