<svg width="10" height="10" viewBox="0 0 10 10" fill="none" xmlns="http://www.w3.org/2000/svg">
<path d="M0.714301 6.42857C0.321444 6.42857 1.52588e-05 6.75 1.52588e-05 7.14286V9.28571C1.52588e-05 9.67857 0.321444 10 0.714301 10H2.85716C3.25002 10 3.57144 9.67857 3.57144 9.28571C3.57144 8.89286 3.25002 8.57143 2.85716 8.57143H1.42859V7.14286C1.42859 6.75 1.10716 6.42857 0.714301 6.42857ZM0.714301 3.57143C1.10716 3.57143 1.42859 3.25 1.42859 2.85714V1.42857H2.85716C3.25002 1.42857 3.57144 1.10714 3.57144 0.714286C3.57144 0.321429 3.25002 0 2.85716 0H0.714301C0.321444 0 1.52588e-05 0.321429 1.52588e-05 0.714286V2.85714C1.52588e-05 3.25 0.321444 3.57143 0.714301 3.57143ZM8.57144 8.57143H7.14287C6.75002 8.57143 6.42859 8.89286 6.42859 9.28571C6.42859 9.67857 6.75002 10 7.14287 10H9.28573C9.67859 10 10 9.67857 10 9.28571V7.14286C10 6.75 9.67859 6.42857 9.28573 6.42857C8.89287 6.42857 8.57144 6.75 8.57144 7.14286V8.57143ZM6.42859 0.714286C6.42859 1.10714 6.75002 1.42857 7.14287 1.42857H8.57144V2.85714C8.57144 3.25 8.89287 3.57143 9.28573 3.57143C9.67859 3.57143 10 3.25 10 2.85714V0.714286C10 0.321429 9.67859 0 9.28573 0H7.14287C6.75002 0 6.42859 0.321429 6.42859 0.714286Z" fill="white"/>
</svg>
