<svg width="12" height="12" viewBox="0 0 12 12" fill="none" xmlns="http://www.w3.org/2000/svg">
<path d="M4.58863 1.68884H2.49252C2.1432 1.68884 1.86002 1.97202 1.86002 2.32134V9.6119C1.86002 9.96122 2.1432 10.2444 2.49252 10.2444H4.58863C4.93795 10.2444 5.22113 9.96122 5.22113 9.6119V2.32134C5.22113 1.97202 4.93795 1.68884 4.58863 1.68884Z" fill="white"/>
<path d="M9.78309 1.68884H7.68697C7.33765 1.68884 7.05447 1.97202 7.05447 2.32134V9.6119C7.05447 9.96122 7.33765 10.2444 7.68697 10.2444H9.78309C10.1324 10.2444 10.4156 9.96122 10.4156 9.6119V2.32134C10.4156 1.97202 10.1324 1.68884 9.78309 1.68884Z" fill="white"/>
</svg>
