<svg width="11" height="11" viewBox="0 0 11 11" fill="none" xmlns="http://www.w3.org/2000/svg">
<path d="M2.29168 1.37498V9.62498C2.29194 9.70851 2.31498 9.79038 2.35831 9.86179C2.40164 9.9332 2.46363 9.99144 2.5376 10.0302C2.61157 10.069 2.69472 10.0869 2.7781 10.082C2.86148 10.077 2.94194 10.0495 3.0108 10.0022L8.96914 5.87719C9.21618 5.70623 9.21618 5.29465 8.96914 5.12323L3.0108 0.998228C2.94208 0.950481 2.86159 0.922481 2.77807 0.917271C2.69454 0.91206 2.61119 0.929837 2.53707 0.968672C2.46294 1.00751 2.40088 1.06591 2.35761 1.13755C2.31435 1.20918 2.29155 1.2913 2.29168 1.37498Z" fill="white"/>
</svg>
