<svg width="10" height="12" viewBox="0 0 10 12" fill="none" xmlns="http://www.w3.org/2000/svg">
<path d="M2.41668 7.18312V1.12728C2.41668 0.983625 2.35961 0.84585 2.25803 0.744268C2.15645 0.642686 2.01867 0.585618 1.87501 0.585618C1.73136 0.585618 1.59358 0.642686 1.492 0.744268C1.39042 0.84585 1.33335 0.983625 1.33335 1.12728V7.18312C1.01964 7.29698 0.748597 7.50467 0.557054 7.77796C0.36551 8.05125 0.262756 8.37689 0.262756 8.71062C0.262756 9.04435 0.36551 9.36999 0.557054 9.64328C0.748597 9.91657 1.01964 10.1243 1.33335 10.2381V10.8773C1.33335 11.0209 1.39042 11.1587 1.492 11.2603C1.59358 11.3619 1.73136 11.419 1.87501 11.419C2.01867 11.419 2.15645 11.3619 2.25803 11.2603C2.35961 11.1587 2.41668 11.0209 2.41668 10.8773V10.2381C2.73039 10.1243 3.00143 9.91657 3.19297 9.64328C3.38452 9.36999 3.48727 9.04435 3.48727 8.71062C3.48727 8.37689 3.38452 8.05125 3.19297 7.77796C3.00143 7.50467 2.73039 7.29698 2.41668 7.18312ZM1.87501 9.25229C1.76788 9.25229 1.66316 9.22052 1.57408 9.161C1.485 9.10148 1.41558 9.01688 1.37458 8.9179C1.33358 8.81893 1.32286 8.71002 1.34376 8.60494C1.36466 8.49987 1.41624 8.40335 1.492 8.3276C1.56775 8.25185 1.66427 8.20026 1.76934 8.17936C1.87441 8.15846 1.98332 8.16919 2.0823 8.21018C2.18128 8.25118 2.26587 8.32061 2.32539 8.40968C2.38491 8.49876 2.41668 8.60349 2.41668 8.71062C2.41668 8.85428 2.35961 8.99205 2.25803 9.09363C2.15645 9.19522 2.01867 9.25229 1.87501 9.25229ZM10 6.54395C9.99907 6.20869 9.89445 5.88193 9.70051 5.60846C9.50656 5.33499 9.23277 5.1282 8.91668 5.01645V1.12728C8.91668 0.983625 8.85961 0.84585 8.75803 0.744268C8.65645 0.642686 8.51867 0.585618 8.37501 0.585618C8.23136 0.585618 8.09358 0.642686 7.992 0.744268C7.89042 0.84585 7.83335 0.983625 7.83335 1.12728V5.01645C7.51964 5.13031 7.2486 5.338 7.05705 5.61129C6.86551 5.88458 6.76276 6.21022 6.76276 6.54395C6.76276 6.87768 6.86551 7.20332 7.05705 7.47661C7.2486 7.7499 7.51964 7.95759 7.83335 8.07145V10.8773C7.83335 11.0209 7.89042 11.1587 7.992 11.2603C8.09358 11.3619 8.23136 11.419 8.37501 11.419C8.51867 11.419 8.65645 11.3619 8.75803 11.2603C8.85961 11.1587 8.91668 11.0209 8.91668 10.8773V8.07145C9.23277 7.9597 9.50656 7.75291 9.70051 7.47944C9.89445 7.20598 9.99907 6.87921 10 6.54395ZM8.37501 7.08562C8.26788 7.08562 8.16316 7.05385 8.07408 6.99433C7.985 6.93481 7.91558 6.85021 7.87458 6.75124C7.83358 6.65226 7.82285 6.54335 7.84376 6.43828C7.86466 6.3332 7.91624 6.23669 7.992 6.16093C8.06775 6.08518 8.16427 6.03359 8.26934 6.01269C8.37441 5.99179 8.48332 6.00252 8.5823 6.04352C8.68128 6.08451 8.76587 6.15394 8.82539 6.24302C8.88491 6.33209 8.91668 6.43682 8.91668 6.54395C8.91668 6.68761 8.85961 6.82539 8.75803 6.92697C8.65645 7.02855 8.51867 7.08562 8.37501 7.08562ZM6.75001 2.21062C6.75085 1.91251 6.66967 1.61992 6.51535 1.36486C6.36103 1.1098 6.13953 0.90211 5.87507 0.764512C5.61062 0.626914 5.31341 0.564714 5.01598 0.584718C4.71854 0.604722 4.43234 0.70616 4.18869 0.877931C3.94505 1.0497 3.75335 1.28518 3.63457 1.55861C3.5158 1.83203 3.47452 2.13286 3.51527 2.42817C3.55602 2.72348 3.67722 3.00189 3.8656 3.23294C4.05398 3.46398 4.30229 3.63875 4.58335 3.73812V10.8773C4.58335 11.0209 4.64042 11.1587 4.742 11.2603C4.84358 11.3619 4.98136 11.419 5.12501 11.419C5.26867 11.419 5.40645 11.3619 5.50803 11.2603C5.60961 11.1587 5.66668 11.0209 5.66668 10.8773V3.73812C5.98277 3.62636 6.25656 3.41958 6.45051 3.14611C6.64445 2.87264 6.74907 2.54588 6.75001 2.21062ZM5.12501 2.75228C5.01788 2.75228 4.91316 2.72052 4.82408 2.661C4.735 2.60148 4.66558 2.51688 4.62458 2.4179C4.58358 2.31893 4.57285 2.21002 4.59376 2.10494C4.61466 1.99987 4.66624 1.90336 4.742 1.8276C4.81775 1.75185 4.91427 1.70026 5.01934 1.67936C5.12441 1.65846 5.23332 1.66919 5.3323 1.71018C5.43128 1.75118 5.51587 1.82061 5.57539 1.90968C5.63491 1.99876 5.66668 2.10349 5.66668 2.21062C5.66668 2.35428 5.60961 2.49205 5.50803 2.59363C5.40645 2.69522 5.26867 2.75228 5.12501 2.75228Z" fill="white"/>
</svg>