<svg width="6" height="13" viewBox="0 0 6 13" fill="none" xmlns="http://www.w3.org/2000/svg">
<path d="M0.750021 4.75003H5.25002C5.29558 4.74988 5.34024 4.73732 5.37919 4.71368C5.41814 4.69005 5.44991 4.65623 5.47107 4.61589C5.49223 4.57554 5.50199 4.53019 5.4993 4.4847C5.4966 4.43922 5.48155 4.39534 5.45577 4.35778L3.20577 1.10778C3.11252 0.973026 2.88802 0.973026 2.79452 1.10778L0.544521 4.35778C0.518478 4.39526 0.503205 4.43917 0.500363 4.48472C0.49752 4.53028 0.507217 4.57575 0.5284 4.61618C0.549582 4.65661 0.58144 4.69046 0.620512 4.71406C0.659584 4.73766 0.704376 4.7501 0.750021 4.75003Z" fill="white"/>
<path d="M0.750021 8.24997H5.25002C5.29558 8.25012 5.34024 8.26268 5.37919 8.28632C5.41814 8.30995 5.44991 8.34377 5.47107 8.38411C5.49223 8.42446 5.50199 8.46981 5.4993 8.5153C5.4966 8.56078 5.48155 8.60466 5.45577 8.64222L3.20577 11.8922C3.11252 12.027 2.88802 12.027 2.79452 11.8922L0.544521 8.64222C0.518478 8.60474 0.503205 8.56083 0.500363 8.51528C0.49752 8.46972 0.507217 8.42425 0.5284 8.38382C0.549582 8.34339 0.58144 8.30954 0.620512 8.28594C0.659584 8.26234 0.704376 8.2499 0.750021 8.24997Z" fill="white"/>
</svg>
