<svg width="11" height="12" viewBox="0 0 11 12" fill="none" xmlns="http://www.w3.org/2000/svg">
<path d="M7.31303 1.12466C7.31287 1.00999 7.28035 0.897689 7.21922 0.800667C7.15809 0.703645 7.07083 0.625839 6.96746 0.576191C6.86409 0.526543 6.74881 0.507068 6.63487 0.520003C6.52093 0.532939 6.41295 0.577761 6.32334 0.649318L3.44323 2.95292H0.609433C0.447806 2.95292 0.292798 3.01712 0.17851 3.13141C0.0642217 3.2457 1.52588e-05 3.40071 1.52588e-05 3.56234V8.43768C1.52588e-05 8.59931 0.0642217 8.75432 0.17851 8.8686C0.292798 8.98289 0.447806 9.0471 0.609433 9.0471H3.44323L6.32334 11.3507C6.41295 11.4223 6.52093 11.4671 6.63487 11.48C6.74881 11.4929 6.86409 11.4735 6.96746 11.4238C7.07083 11.3742 7.15809 11.2964 7.21922 11.1994C7.28035 11.1023 7.31287 10.99 7.31303 10.8754V1.12466ZM4.0368 4.03768L6.0942 2.39225V9.60776L4.0368 7.96233C3.92893 7.87579 3.79482 7.82851 3.65652 7.82826H1.21885V4.17175H3.65652C3.79482 4.17151 3.92893 4.12423 4.0368 4.03768ZM11 6.00001C11.0009 6.72042 10.8595 7.43391 10.5838 8.09949C10.3081 8.76506 9.90365 9.36959 9.39358 9.87835L8.53187 9.01663C8.92858 8.62091 9.24318 8.15069 9.45758 7.633C9.67197 7.1153 9.78195 6.56034 9.78117 6.00001C9.78188 5.43969 9.67188 4.88474 9.45748 4.36706C9.24309 3.84937 8.92853 3.37915 8.53187 2.98339L9.39358 2.12167C9.90365 2.63042 10.3081 3.23496 10.5838 3.90053C10.8595 4.56611 11.0009 5.2796 11 6.00001Z" fill="white"/>
</svg>
